<svg width="23" height="28" viewBox="0 0 23 28" fill="none" xmlns="http://www.w3.org/2000/svg">
<path d="M22 27L22 23.1075C22 22.1309 22 21.6425 21.8874 21.2432C21.604 20.2386 20.8189 19.4535 19.8143 19.1701C19.4149 19.0575 18.9266 19.0575 17.95 19.0575H5.05C4.07337 19.0575 3.58505 19.0575 3.18568 19.1701C2.18108 19.4535 1.39596 20.2386 1.11263 21.2432C1 21.6425 0.999999 22.1309 0.999999 23.1075L0.999999 27M18.08 6.86953C18.08 10.1112 15.4474 12.7391 12.2 12.7391C8.95257 12.7391 6.32 10.1112 6.32 6.86953C6.32 3.62788 8.95257 1 12.2 1C15.4474 1 18.08 3.62788 18.08 6.86953Z" stroke="black" stroke-width="2" stroke-linecap="round" stroke-linejoin="round"/>
</svg>
