<svg width="33" height="33" viewBox="0 0 33 33" fill="none" xmlns="http://www.w3.org/2000/svg">
<path d="M16.6943 32.7222C7.73418 32.7222 0.444336 25.4323 0.444336 16.4722C0.444336 7.51201 7.73418 0.222168 16.6943 0.222168C25.6545 0.222168 32.9443 7.51201 32.9443 16.4722C32.9443 25.4323 25.6545 32.7222 16.6943 32.7222ZM16.6943 2.72217C9.11621 2.72217 2.94434 8.89404 2.94434 16.4722C2.94434 24.0503 9.11621 30.2222 16.6943 30.2222C24.2725 30.2222 30.4443 24.0542 30.4443 16.4722C30.4443 8.89014 24.2764 2.72217 16.6943 2.72217Z" fill="black"/>
<path d="M21.9808 19.2847C20.6215 19.2847 19.3082 18.6815 18.2824 17.587C17.2678 16.4865 16.6611 15.0713 16.5636 13.5776C16.4488 11.9604 16.9449 10.4722 17.9605 9.38857C18.9761 8.30498 20.3957 7.72217 21.9808 7.72217C23.5543 7.72217 24.9785 8.31748 25.991 9.39873C27.0035 10.48 27.5121 11.9769 27.3973 13.5792C27.2979 15.072 26.6915 16.486 25.6785 17.587C24.6519 18.6815 23.3394 19.2847 21.9808 19.2847Z" fill="black"/>
<path d="M9.49237 19.5472C7.16738 19.5472 5.12285 17.398 4.93535 14.7558C4.83925 13.4026 5.25957 12.1519 6.1205 11.2339C6.98144 10.3159 8.16894 9.82764 9.49159 9.82764C10.8142 9.82764 12.001 10.3308 12.8564 11.2448C13.7119 12.1589 14.1455 13.4183 14.0478 14.7605C13.8572 17.3988 11.8135 19.5472 9.49237 19.5472Z" fill="black"/>
<path d="M29.5358 24.2286C29.4116 23.8614 29.1092 23.47 28.503 23.0989C26.6702 21.9794 24.4155 21.3872 21.9811 21.3872C19.5928 21.3872 17.2756 22.0044 15.4553 23.1255C13.4045 24.3888 12.0264 26.2309 11.4709 28.452C11.3397 28.9747 11.1483 29.9473 11.353 30.4919C14.6377 31.741 18.2566 31.7983 21.5792 30.6538C24.9019 29.5093 27.7178 27.2356 29.5366 24.2286H29.5358Z" fill="black"/>
<path d="M9.47793 27.8296C10.0303 25.6257 11.2061 23.7882 13.0303 22.3022C13.1165 22.2311 13.1821 22.1381 13.2202 22.033C13.2582 21.9279 13.2674 21.8145 13.2468 21.7046C13.2261 21.5947 13.1763 21.4924 13.1027 21.4083C13.029 21.3242 12.9341 21.2614 12.8279 21.2265C11.8904 20.9272 10.8201 20.7671 9.49277 20.7671C7.63184 20.7671 5.65605 21.271 4.16934 22.1866C3.74746 22.4468 3.3334 22.5468 3.01465 22.6358C4.29439 25.4643 6.41667 27.8283 9.09121 29.4046L9.23106 29.3937C9.26164 28.8654 9.34433 28.3415 9.47793 27.8296Z" fill="black"/>
</svg>
