<svg width="27" height="30" viewBox="0 0 27 30" fill="none" xmlns="http://www.w3.org/2000/svg">
<path d="M16.1892 1.33025L16.191 1.3319L25.1109 9.21081C25.1112 9.2111 25.1115 9.21138 25.1118 9.21167C25.5555 9.61175 25.9101 10.1022 26.152 10.6507C26.3941 11.1996 26.5179 11.7941 26.5152 12.3949V12.3961V25.5054C26.5152 26.6317 26.0711 27.7116 25.2812 28.5074C24.4913 29.3033 23.4205 29.75 22.3043 29.75H4.46098C3.34481 29.75 2.27397 29.3033 1.48413 28.5074C0.694236 27.7116 0.250141 26.6317 0.250141 25.5054L0.250149 12.411L0.250133 12.4091C0.245374 11.8059 0.36821 11.2087 0.610401 10.6572C0.85242 10.106 1.20804 9.61332 1.6535 9.21167C1.65382 9.21138 1.65413 9.2111 1.65444 9.21082L10.5743 1.3319L10.5743 1.33191L10.5761 1.33024C11.3482 0.63442 12.3474 0.25 13.3827 0.25C14.4179 0.25 15.4171 0.63442 16.1892 1.33025ZM16.3565 27.2536H16.6065V27.0036V19.5126C16.6065 19.0495 16.424 18.605 16.0985 18.2771C15.7729 17.949 15.3309 17.7643 14.8696 17.7643H11.8957C11.4344 17.7643 10.9924 17.949 10.6668 18.2771C10.3413 18.605 10.1588 19.0495 10.1588 19.5126V27.0036V27.2536H10.4088H16.3565ZM19.0804 27.0036V27.2536H19.3304H22.3043C22.7656 27.2536 23.2076 27.0689 23.5332 26.7409C23.8587 26.4129 24.0413 25.9684 24.0413 25.5054V12.3961V12.3958C24.041 12.1478 23.9883 11.9027 23.8866 11.6768C23.7849 11.4509 23.6366 11.2492 23.4514 11.0852L23.451 11.0849L14.5297 3.21962C14.5297 3.21956 14.5296 3.21949 14.5295 3.21943C14.2127 2.93904 13.805 2.78417 13.3827 2.78417C12.9603 2.78417 12.5527 2.93904 12.2358 3.21943C12.2357 3.21949 12.2356 3.21956 12.2356 3.21962L3.31427 11.0849L3.31389 11.0852C3.12868 11.2492 2.98037 11.4508 2.87871 11.6768C2.77705 11.9027 2.72434 12.1478 2.72403 12.3958V12.3961V25.5054C2.72403 25.9684 2.90658 26.4129 3.23211 26.7409C3.5577 27.0689 3.9997 27.2536 4.46098 27.2536H7.43487H7.68487V27.0036V19.5126C7.68487 18.3862 8.12897 17.3064 8.91886 16.5105C9.7087 15.7147 10.7795 15.2679 11.8957 15.2679H14.8696C15.9858 15.2679 17.0566 15.7147 17.8464 16.5105C18.6363 17.3064 19.0804 18.3862 19.0804 19.5126V27.0036Z" fill="white" stroke="white" stroke-width="0.5"/>
</svg>
