<svg width="84" height="84" viewBox="0 0 84 84" fill="none" xmlns="http://www.w3.org/2000/svg">
<path d="M0 42C0 18.804 18.804 0 42 0C65.196 0 84 18.804 84 42C84 65.196 65.196 84 42 84C18.804 84 0 65.196 0 42Z" fill="#00A859"/>
<path fill-rule="evenodd" clip-rule="evenodd" d="M31.965 30.1027C29.4398 30.1027 27.3928 32.1498 27.3928 34.6749V59.4317C27.3928 61.9569 29.4398 64.0039 31.965 64.0039H56.7218C59.2469 64.0039 61.294 61.9569 61.294 59.4317V34.6749C61.294 32.1498 59.2469 30.1027 56.7218 30.1027H31.965ZM23.8242 34.6749C23.8242 30.1789 27.469 26.5342 31.965 26.5342H56.7218C61.2178 26.5342 64.8625 30.1789 64.8625 34.6749V59.4317C64.8625 63.9277 61.2178 67.5725 56.7218 67.5725H31.965C27.469 67.5725 23.8242 63.9277 23.8242 59.4317V34.6749Z" fill="white"/>
<path fill-rule="evenodd" clip-rule="evenodd" d="M23.8189 17.6128L23.8242 17.6128H47.9119L47.917 17.6128C50.0433 17.6188 52.0807 18.4662 53.5842 19.9697C55.0877 21.4732 55.9351 23.5107 55.9411 25.637C55.9412 25.651 55.941 25.6651 55.9408 25.6792L55.885 28.3556C55.8645 29.3408 55.0492 30.1229 54.0639 30.1023C53.0787 30.0818 52.2967 29.2665 52.3172 28.2813L52.3725 25.6278C52.3641 24.4514 51.8931 23.3253 51.0609 22.493C50.2247 21.6568 49.0917 21.1853 47.9092 21.1813H23.827C22.4082 21.1862 21.0487 21.752 20.0454 22.7553C19.042 23.7587 18.4762 25.1181 18.4714 26.537V50.6191C18.4754 51.8016 18.9469 52.9346 19.7831 53.7708C20.6193 54.6071 21.7524 55.0786 22.9349 55.0826H25.6085C26.5939 55.0826 27.3928 55.8814 27.3928 56.8668C27.3928 57.8523 26.5939 58.6511 25.6085 58.6511H22.9321L22.927 58.6511C20.8007 58.645 18.7633 57.7977 17.2597 56.2942C15.7562 54.7907 14.9089 52.7532 14.9028 50.6269L14.9028 50.6219V26.5342L14.9028 26.5289C14.9098 24.1663 15.8514 21.9026 17.522 20.232C19.1926 18.5614 21.4564 17.6198 23.8189 17.6128Z" fill="white"/>
<path fill-rule="evenodd" clip-rule="evenodd" d="M44.3438 36.3479C45.3293 36.3479 46.1281 37.1467 46.1281 38.1322V55.9749C46.1281 56.9603 45.3293 57.7592 44.3438 57.7592C43.3584 57.7592 42.5596 56.9603 42.5596 55.9749V38.1322C42.5596 37.1467 43.3584 36.3479 44.3438 36.3479Z" fill="white"/>
<path fill-rule="evenodd" clip-rule="evenodd" d="M33.6377 47.0533C33.6377 46.0679 34.4365 45.269 35.422 45.269H53.2647C54.2501 45.269 55.049 46.0679 55.049 47.0533C55.049 48.0387 54.2501 48.8376 53.2647 48.8376H35.422C34.4365 48.8376 33.6377 48.0387 33.6377 47.0533Z" fill="white"/>
</svg>
