<svg width="31" height="37" viewBox="0 0 31 37" fill="none" xmlns="http://www.w3.org/2000/svg">
<path d="M17.0553 20.5276L17.4867 20.1H16.8793H2.77178C2.34475 20.1 1.93545 19.9311 1.63385 19.631C1.33229 19.3308 1.16309 18.924 1.16309 18.5C1.16309 18.076 1.33229 17.6692 1.63385 17.369C1.93545 17.0689 2.34475 16.9 2.77178 16.9H16.8793H17.4867L17.0553 16.4724L12.7806 12.2363C12.6306 12.087 12.5117 11.9098 12.4305 11.7148C12.3494 11.5199 12.3077 11.3109 12.3077 11.1C12.3077 10.8891 12.3494 10.6801 12.4305 10.4852C12.5117 10.2902 12.6306 10.113 12.7806 9.96369C12.9307 9.81436 13.1089 9.69584 13.305 9.61496C13.5012 9.53408 13.7115 9.49243 13.924 9.49243C14.1364 9.49243 14.3467 9.53408 14.5429 9.61496C14.7391 9.69584 14.9172 9.81436 15.0673 9.96369L22.5 17.3617C22.6456 17.5135 22.7596 17.6922 22.8358 17.8877L22.8357 17.8878L22.8376 17.8924C22.9983 18.2817 22.9983 18.7183 22.8376 19.1076L22.8376 19.1076L22.8358 19.1123C22.7596 19.3078 22.6456 19.4865 22.5 19.6383L15.0673 27.0363L15.0665 27.037C14.917 27.1871 14.7391 27.3062 14.543 27.3875C14.3469 27.4688 14.1365 27.5107 13.924 27.5107C13.7114 27.5107 13.501 27.4688 13.3049 27.3875C13.1088 27.3062 12.9309 27.1871 12.7814 27.037L12.7799 27.0356C12.6292 26.8868 12.5096 26.7098 12.428 26.5149C12.3465 26.32 12.3045 26.1111 12.3045 25.9C12.3045 25.6889 12.3465 25.48 12.428 25.2851C12.5096 25.0902 12.6292 24.9132 12.7799 24.7644L12.7803 24.7641L17.0553 20.5276ZM6.48917 0.25H25.0761C26.4891 0.25 27.8439 0.808675 28.8427 1.80275C29.8414 2.79678 30.4022 4.14473 30.4022 5.55V31.45C30.4022 32.8553 29.8414 34.2032 28.8427 35.1973C27.8439 36.1913 26.4891 36.75 25.0761 36.75H6.48917C5.07623 36.75 3.72139 36.1913 2.72265 35.1973C1.72394 34.2032 1.16309 32.8553 1.16309 31.45V25.9C1.16309 25.476 1.33229 25.0692 1.63385 24.769C1.93545 24.4689 2.34475 24.3 2.77178 24.3C3.19881 24.3 3.60812 24.4689 3.90972 24.769C4.21128 25.0692 4.38048 25.476 4.38048 25.9V31.45C4.38048 32.0073 4.60293 32.5416 4.99852 32.9353C5.39406 33.329 5.93029 33.55 6.48917 33.55H25.0761C25.635 33.55 26.1712 33.329 26.5668 32.9353C26.9624 32.5416 27.1848 32.0073 27.1848 31.45V5.55C27.1848 4.99267 26.9624 4.4584 26.5668 4.06466C26.1712 3.67097 25.635 3.45 25.0761 3.45H6.48917C5.93029 3.45 5.39406 3.67097 4.99852 4.06466C4.60293 4.4584 4.38048 4.99267 4.38048 5.55V11.1C4.38048 11.524 4.21128 11.9308 3.90972 12.231C3.60812 12.5311 3.19881 12.7 2.77178 12.7C2.34475 12.7 1.93545 12.5311 1.63385 12.231C1.33229 11.9308 1.16309 11.524 1.16309 11.1V5.55C1.16309 4.14473 1.72394 2.79678 2.72265 1.80275C3.72139 0.808675 5.07623 0.25 6.48917 0.25Z" fill="white" stroke="white" stroke-width="0.5"/>
</svg>
